<svg xmlns="http://www.w3.org/2000/svg" viewBox="0 0 42 18" fill="none">
  <g stroke="#a89b85" stroke-width="1.2" stroke-linecap="round" stroke-linejoin="round">
    <path d="M2 14c3.2 0 4.7-2.3 4.7-4.2 0-2.2-1.7-4-3.8-4S-.3 7.6-.3 9.8C-.3 12 1.3 14 2.8 14Z" transform="translate(4 0)"/>
    <circle cx="7.6" cy="4.3" r="1.3"/>
    <circle cx="11" cy="3.3" r="1.15"/>
    <circle cx="14.2" cy="4.4" r="1.2"/>
    <circle cx="9.5" cy="7.6" r="1.15"/>
    <circle cx="22.6" cy="6.2" r="1.1"/>
    <circle cx="25.4" cy="5.2" r="1"/>
    <circle cx="28.2" cy="6.3" r="1.05"/>
    <circle cx="24.6" cy="8.8" r="1.02"/>
    <path d="M23 14.2c2 0 3.4-1.3 3.4-2.8 0-1.7-1.7-3.5-3.9-3.5-2.2 0-3.9 1.8-3.9 3.5 0 1.5 1.4 2.8 3.4 2.8Z"/>
  </g>
</svg>
