<svg xmlns="http://www.w3.org/2000/svg" width="96" height="96" viewBox="0 0 96 96"><title>Logo: Deutscher Tierschutzbund e.V.</title><path d="M48.5159,95.6148c26.3189-.2632,47.4412-21.8122,47.178-48.1311C95.4307,21.1648,73.8817,.04249,47.5628,.30568,21.2439,.56887,.12156,22.1179,.38475,48.4368c.26319,26.3189,21.81225,47.4412,48.13115,47.178Z" style="fill:#fff;"/><path d="M47.993,.6773c9.362-.00268,18.5146,2.77121,26.2999,7.97081,7.7854,5.19959,13.8538,12.59129,17.4378,21.24019,3.5839,8.6489,4.5223,18.1664,2.6965,27.3487-1.8257,9.1823-6.3337,17.6168-12.9537,24.2368-6.6199,6.6199-15.0545,11.1279-24.2368,12.9537-9.1822,1.82581-18.6997,.8873-27.3486-2.69659-8.6489-3.5839-16.0406-9.6524-21.24022-17.43771C3.44828,66.5078,.67439,57.3553,.67706,47.9932c.02506-12.5412,5.01817-24.5617,13.88624-33.4297C23.4313,5.69546,35.4517,.70236,47.993,.6773ZM47.993,0c-9.496-.00268-18.7795,2.81094-26.6762,8.08496C13.42,13.359,7.26477,20.8565,3.62957,29.6291-.00563,38.4018-.95747,48.0554,.89445,57.3691c1.85192,9.3137,6.4244,17.8689,13.13905,24.5836,6.7147,6.7147,15.2699,11.2871,24.5836,13.1391,9.3137,1.85191,18.9674,.9001,27.74-2.7351,8.7726-3.6352,16.2701-9.7905,21.5442-17.68719,5.274-7.8968,8.0876-17.1803,8.0849-26.6763,0-12.7286-5.0564-24.9358-14.0569-33.9363C72.9289,5.05642,60.7216,0,47.993,0Z" style="fill:#009ee3;"/><path d="M8.58789,47.966c0-7.807,2.31501-15.4386,6.65241-21.9299,4.3373-6.4913,10.5021-11.5506,17.7148-14.5382,7.2127-2.98763,15.1494-3.76933,22.8064-2.24626,7.657,1.52306,14.6904,5.28246,20.2107,10.80286,5.5204,5.5204,9.2798,12.5538,10.8029,20.2107,1.5231,7.657,.7414,15.5937-2.2462,22.8064-2.9876,7.2127-8.047,13.3776-14.5382,17.7149-6.4913,4.3373-14.123,6.6524-21.93,6.6524-10.4688,0-20.5089-4.15881-27.9115-11.5614-7.4026-7.4026-11.56131-17.4426-11.56131-27.9115Z" style="fill:#009ee3;"/><path d="M32.2387,36.8178c1.7877,.2235,3.5575,.572,5.2964,1.043,0,0,1.2869,.4335,2.0997,.7857,5.7299-5.73,16.377-7.5993,16.377-7.5993-2.0125-.3472-4.0541-.4969-6.0957-.447-2.8988,.1354-10.3626,5.2829-10.3626,5.2829-2.3031-1.0716-4.8713-1.4392-7.3825-1.0566-2.3257,.454-4.5597,1.2917-6.6105,2.4789,2.2074-.3591,4.4421-.5223,6.6782-.4876Z" style="fill:#fff;"/><path d="M21.8907,56.9199l-1.4088,.6638,.9211,1.9641-7.071,3.3052,.8263,1.7746,7.071-3.2917,.9211,1.9777,1.4224-.6637-2.6821-5.73Z" style="fill:#fff;"/><path d="M25.4833,63.737l-7.4872,5.64,1.1818,1.5688,7.4872-5.64-1.1818-1.5688Z" style="fill:#fff;"/><path d="M25.7648,77.5639l.9617-1.07011-2.4247-2.1809,1.8287-2.0319,2.1673,1.9371,.9618-1.0702-2.1538-1.937,1.5442-1.7204,2.3435,2.1132,.9617-1.0837-3.7928-3.4136-6.2718,6.9627,3.8742,3.4948Z" style="fill:#fff;"/><path d="M32.3209,77.0491l.447,.2303c1.3546,.71799,.7992,1.50359,.2709,2.49249-.3463,.507-.5732,1.08591-.6637,1.69321l1.6932,.9076c.2848-.886,.6711-1.736,1.1514-2.5331,.133-.1966,.2225-.4194,.2624-.6533,.0399-.234,.0294-.4738-.0309-.7034-.0603-.2296-.1689-.4437-.3186-.6279-.1498-.1841-.3371-.33421-.5495-.4401,.2507,.09299,.5174,.1356,.7847,.1253,.2673-.0103,.5299-.0732,.7728-.1852,.2429-.11201,.4613-.2709,.6426-.46751,.1814-.19659,.3221-.42709,.4142-.6782,.1868-.2527,.3156-.5435,.3773-.8516,.0617-.3081,.0548-.626-.0202-.9311-.075-.3052-.2162-.5901-.4137-.8345-.1975-.2444-.4464-.4423-.729-.57961l-3.1969-1.70679-4.4024,8.2765,1.7339,.9212,1.7745-3.4543Zm1.8964-3.5761l.7721,.4064c.5554,.298,.7315,.77209,.3116,1.5578-.2845,.5283-.8534,1.11069-1.5307,.745l-.7721-.40639,1.2191-2.3028Z" style="fill:#fff; fill-rule:evenodd;"/><path d="M43.644,82.183c.6096-2.8718-3.2781-3.5491-2.9123-5.2829,.0129-.143,.0591-.2809,.1348-.4029,.0757-.1219,.1788-.2245,.3012-.2995,.1224-.075,.2606-.1204,.4036-.1325,.143-.0121,.2869,.0094,.4201,.0627,.7722,.1761,.7315,.8941,.5961,1.5714l1.8558,.4063c.5418-1.8964-.2032-2.9259-2.0726-3.3323-2.3434-.4876-3.2645,.5012-3.5761,1.9371-.5825,2.7092,3.2646,3.65739,2.9124,5.31-.0111,.1387-.0526,.2733-.1216,.3942-.069,.1209-.1637,.22511-.2775,.30531s-.2438,.1343-.3808,.1585c-.1371,.0243-.2778,.0181-.4122-.0181-1.043-.2303-.9346-.9753-.745-1.8558l-1.91-.4064c-.447,1.5713-.298,3.0614,2.0726,3.5626,1.4629,.3115,3.2645,.4063,3.7657-1.9777" style="fill:#fff;"/><path d="M50.0115,85.0679c1.8287,0,2.804-.9076,2.7091-3.4l-1.9235,.0677c0,.7315,.0813,1.8964-.8398,1.9235-.9211,.0271-1.2733-.9888-1.3546-3.38651-.0813-2.3976,0-3.4406,1.1243-3.4813,.5825,0,.8127,.4335,.8669,1.6797h1.91c0-2.0183-.8263-3.0884-2.8311-3.0207-3.2239,.1084-3.1426,2.4654-3.0614,4.9443,.0813,2.4789,.1761,4.8359,3.4001,4.7275" style="fill:#fff;"/><path d="M56.4993,78.2146l-1.1514-3.5762-1.8694,.6096,2.8988,8.9132,1.8558-.6096-1.2868-3.96889,2.1402-.7044,1.2869,3.9825,1.8693-.6096-2.8988-8.8996-1.8693,.596,1.1649,3.5626-2.1402,.7044Z" style="fill:#fff;"/><path d="M64.2082,70.3033l3.6438,5.4183c.5825,.867,.5825,1.5578-.12189,2.0319s-1.2597,.298-1.91-.6502l-3.6438-5.4183-1.6255,1.09721,3.7251,5.4996c.9753,1.463,2.4654,1.8152,4.2534,.6096,.36951-.1785,.69511-.4363,.95361-.7551s.4435-.6906,.54179-1.089c.0983-.3984,.10751-.8136,.027-1.216-.0805-.4024-.24879-.7821-.4929-1.1121l-3.7251-5.5131-1.6255,1.0972Z" style="fill:#fff;"/><path d="M66.4824,68.7047l1.1785,1.0295,1.43591-1.6526,5.8925,5.1339,1.2868-1.4901-5.906-5.1203,1.4359-1.6526-1.165-1.016-4.1586,4.7682Z" style="fill:#fff;"/><path d="M72.4159,63.8692l1.761-3.3187,3.6438,6.3937,1.5036,.8127,2.7905-5.2287-1.2733-.6773-1.8965,3.5626-3.6438-6.4073-1.5036-.7992-2.655,4.9849,1.2733,.6773Z" style="fill:#fff;"/><path d="M83.9854,56.1747c.1418-.3377,.2057-.7031,.1869-1.069-.0188-.3659-.1198-.7228-.2955-1.0443-.1757-.3214-.4216-.5992-.7194-.8126-.29781-.2133-.6399-.3569-1.0007-.4199-.2615-.1006-.5413-.1449-.8211-.13-.2798,.015-.5533,.0888-.8026,.2166-.2493,.1279-.4688,.3069-.6442,.5254-.1754,.2185-.3027,.4715-.3736,.7426h-.0677c.0414-.5112-.1201-1.0182-.4497-1.4111-.32961-.393-.8007-.6403-1.3113-.6885-.4436-.1197-.911-.1197-1.3546,0-.3843,.1311-.7234,.3689-.9776,.6855-.2543,.3166-.4132,.699-.4583,1.1025l-.6772,3.0208,9.08929,2.2621,.6773-2.9801Zm-8.534-.2573l.4064-1.6391c.034-.1875,.10709-.3657,.2146-.523,.1075-.1573,.24699-.2901,.40939-.3898,.1623-.0997,.3439-.1641,.53281-.1889,.1889-.0247,.381-.0094,.5635,.0451,.1908,.0276,.3735,.0955,.536,.1993,.1624,.1038,.3008,.241,.4059,.4026,.1052,.1615,.17461,.3437,.2038,.5342,.0291,.1906,.0172,.3851-.0349,.5707l-.4064,1.6933-2.8311-.7044Zm3.8335,.9617l.3116-1.2462c.2844-1.1785,.75851-2.0048,2.208-1.6526,.2159,.0505,.4188,.1457,.5956,.2795,.1767,.1338,.3235,.3031,.4307,.4972,.1073,.194,.1726,.4084,.1918,.6293,.0192,.2209-.00809,.4433-.0803,.653l-.3115,1.639-3.3459-.7992Z" style="fill:#fff; fill-rule:evenodd;"/><path d="M81.6147,49.5777c2.5873-.0948,3.5761-1.0972,3.5084-3.0749s-1.1243-2.9124-3.7251-2.8175l-5.9332,.2032v1.192l5.9873-.2032c2.059-.0677,2.5873,.5283,2.628,1.6662,.0406,1.1378-.4471,1.7609-2.506,1.8286l-5.9873,.2168v1.192l6.0279-.2032Z" style="fill:#fff;"/><path d="M73.5008,37.0075l7.6263-2.4789v.0271l-6.502,5.9467,.5283,1.5984,8.9132-2.8988-.3387-1.0024-7.7211,2.506-.0136-.0271,6.5969-6.0279-.5148-1.5578-8.9132,2.8988,.3387,1.0159Z" style="fill:#fff;"/><path d="M80.0425,29.1503l-1.2463-1.761c-.9346-1.3546-1.80161-1.8829-2.70921-1.8422-1.2654,.2781-2.4426,.8644-3.4271,1.7068-.84019,.5594-1.5895,1.2447-2.2215,2.0319-.2593,.4497-.3724,.9689-.3239,1.4857,.0485,.5169,.2564,1.0059,.5948,1.3995l1.6526,2.357,7.6806-5.3777Zm-7.51801,3.8064l-.8941-1.2869c-.7179-1.0159-.4741-1.8964,1.0702-2.9936l1.5577-1.0837c1.7881-1.2462,2.7092-1.1107,3.6033,.2574l.6366,.9211-5.9737,4.1857Z" style="fill:#fff; fill-rule:evenodd;"/><path d="M46.4615,49.4836l11.2431-4.9578,.2574-2.7092s-6.0279-1.1107-6.353-1.2056l-.447-.1354,.1083-1.8558,10.8368-5.5945s2.506-2.4789,3.2781-3.2646c.0677,0,.149,3.8742,.149,3.8742,0,0-1.12431,7.5315-1.43591,12.0017-.3115,4.4701,1.04311,16.6615,1.04311,16.6615l-.8805,2.8311-3.5762-7.4097-1.0836,.6638-1.3546,10.2272-.7315,.39281-2.7092-11.6495-1.0024,.298-1.1785,11.9882-.7857,1.4765-.9753-.8399-2.0996-11.5547c-.92,3.8951-1.6209,7.8386-2.0996,11.8121-.2303,2.3028-.7315,2.45181-1.0972,2.70921-.4929-.4712-.8206-1.0888-.9347-1.761,.1626-2.3976,1.8287-21.9986,1.8287-21.9986Z" style="fill:#fff;"/><path d="M20.698,51.0546v-2.1538c0-1.6256-.4471-2.5738-1.2598-3.0614-1.203-.4798-2.5066-.6521-3.7929-.5012-1.0026-.0049-1.9995,.1505-2.953,.4605-.4606,.2333-.838,.6031-1.0804,1.0589-.2425,.4559-.3382,.9755-.2742,1.4878v2.8717l9.3603-.1625Zm-8.3443-1.0431v-1.5713c0-1.2462,.6637-1.8422,2.5601-1.8693h1.8965c2.1809,0,2.8175,.5553,2.8446,2.2215v1.1379l-7.3012,.0812Z" style="fill:#fff; fill-rule:evenodd;"/><path d="M22.2693,38.3347l-1.0024-.2574-.9618,3.5761-3.1291-.8398,.8669-3.2511-1.0024-.2709-.8669,3.251-2.9124-.7721,.9482-3.5084-1.0024-.2709-1.2597,4.6598,9.0622,2.4247,1.2598-4.741Z" style="fill:#fff;"/><path d="M19.9121,35.0164c2.2216,1.3545,3.5897,1.043,4.6192-.6503,1.0295-1.6932,.6367-3.0613-1.5849-4.4024l-5.0932-3.0614-.6232,1.0295,5.1475,3.0885c1.7474,1.0566,1.8829,1.8558,1.3546,2.8311-.5283,.9753-1.3546,1.2327-3.1156,.1761l-5.1339-3.0885-.6096,1.016,5.0391,3.0614Z" style="fill:#fff;"/><path d="M20.0352,23.9224l.7314,.745,1.7746-1.7068,5.7841,6.0009,.8534-.8399-5.7842-5.9873,1.7746-1.7203-.718-.7451-4.4159,4.2535Z" style="fill:#fff;"/><path d="M30.2336,23.3938c.1252,.3764,.3394,.7171,.6244,.993,.285,.276,.6323,.4791,1.0126,.5922,.3803,.113,.7822,.1326,1.1717,.057,.3895-.0755,.7549-.2439,1.0654-.4908,.3455-.1407,.6551-.3572,.9058-.6335,.2507-.2762,.4362-.6052,.5428-.9628,.1066-.3575,.1316-.7344,.0732-1.1028-.0585-.3685-.199-.7191-.411-1.0261-1.5307-2.5466-4.9714-.1354-6.0415-1.8964-.0964-.1648-.1569-.3481-.1774-.5379-.0206-.1898-.0008-.3818,.058-.5635,.0588-.1816,.1554-.3487,.2834-.4904,.1279-.1417,.2844-.2548,.4591-.3317,.9618-.5825,1.5984-.1761,2.1132,.7179l1.0701-.6502c-.1263-.3479-.3341-.6604-.606-.9114-.2719-.2511-.6001-.4333-.9569-.5314-.3568-.0982-.732-.1094-1.094-.0328-.3621,.0766-.7005,.2389-.9869,.4732-.323,.1472-.6104,.3623-.8426,.6308-.2321,.2685-.4036,.5839-.5026,.9247-.099,.3408-.1233,.699-.0712,1.0501,.0522,.3511,.1795,.6867,.3733,.9841,1.4494,2.4111,4.9307,0,6.0009,1.8287,.1234,.1788,.205,.383,.2388,.5976,.0339,.2146,.019,.4341-.0434,.6422-.0624,.2081-.1708,.3995-.3172,.56-.1464,.1606-.327,.2862-.5284,.3675-.1817,.1346-.3916,.2261-.6139,.2676-.2222,.0415-.451,.0318-.669-.0282-.218-.06-.4194-.1689-.5891-.3183-.1697-.1495-.3031-.3355-.3902-.5442l-.149-.2303-1.0024,.5961Z" style="fill:#fff;"/><path d="M41.7354,14.2365c-.3657-1.788-1.3546-2.533-3.0885-2.0454-1.7339,.4877-2.7092,1.5036-2.0319,4.0638l.6909,2.5602c.9347,3.5084,2.7092,3.1155,3.8199,2.8175,.5825-.1625,2.6009-.7044,1.7881-3.549l-1.192,.3251c.4605,1.7745-.569,2.1809-.9212,2.2757-.894,.2303-1.6932,.1626-2.2892-2.059l-.5825-2.3705c-.4199-1.5578-.2574-1.8423-.2438-1.9506,.0689-.2747,.2176-.5229,.4273-.7134,.2097-.1904,.4711-.3145,.7512-.3568,.372-.1049,.7703-.0612,1.1107,.122,.3435,.3323,.5633,.772,.6231,1.2462l1.1379-.3658Z" style="fill:#fff;"/><path d="M46.7057,20.522l.0677-4.2941,3.2917,.0677-.0813,4.2806,1.1921,.0135,.1761-9.3602-1.2056-.0271-.0677,4.0502-3.2782-.0542,.0678-4.0502-1.1921-.0271-.1625,9.3738,1.192,.0271Z" style="fill:#fff;"/><path d="M58.0712,22.2156l.2573-1.0024-3.5761-.9618,.8399-3.1291,3.251,.8669,.2709-1.0024-3.251-.8669,.7721-2.9124,3.5084,.9347,.2709-1.0024-4.6598-1.2462-2.4247,9.0486,4.7411,1.2734Z" style="fill:#fff;"/><path d="M64.0311,20.5355c.16251,.0655,.30901,.1652,.4295,.2925,.1205,.1272,.2121,.2789,.2687,.4447,.0565,.1658,.0767,.3419,.0591,.5163-.0177,.1743-.0727,.3428-.1613,.4939-.5877,.882-1.044,1.8449-1.3546,2.8582l1.0701,.6367c.2554-.7844,.5866-1.542,.9889-2.2622,.9076-1.6526,.75861-2.1673-.0813-2.8582,.4699,.192,.99471,.2012,1.471,.0257,.4763-.1755,.8697-.5229,1.1027-.9739,.1866-.2469,.3169-.5316,.3821-.8341,.0651-.3026,.0635-.6157-.0049-.9175-.06841-.3018-.20181-.5851-.3909-.83-.1892-.245-.4295-.4457-.7042-.5882l-2.6956-1.639-4.8088,7.9921,1.0295,.6096,2.2215-3.6981,1.1785,.7315Zm.86691-4.1721l1.5578,.9211c.2942,.2051,.49509,.5185,.55849,.8714,.0635,.353-.01559,.7167-.21989,1.0115-.07211,.1756-.1804,.3341-.3178,.4652-.1373,.1311-.3007,.2318-.4795,.2957-.1789,.0639-.3691,.0894-.5585,.075-.1893-.0144-.3735-.0684-.5406-.1586l-1.5307-.8805,1.5307-2.6008Z" style="fill:#fff; fill-rule:evenodd;"/></svg>